<svg width="378" height="272" viewBox="0 0 378 272" fill="none" xmlns="http://www.w3.org/2000/svg">
<ellipse cx="189.327" cy="136.107" rx="161.657" ry="135.724" fill="#FF0000"/>
<path d="M55.6194 139.448C55.6194 145.784 56.4834 151.472 58.2114 156.512C59.9394 161.504 62.3874 165.752 65.5554 169.256C68.7714 172.712 72.6354 175.376 77.1474 177.248C81.6594 179.072 86.6754 179.984 92.1954 179.984C97.7634 179.984 102.803 179.072 107.315 177.248C111.827 175.376 115.667 172.712 118.835 169.256C122.003 165.752 124.451 161.504 126.179 156.512C127.907 151.472 128.771 145.784 128.771 139.448C128.771 133.112 127.907 127.424 126.179 122.384C124.451 117.344 122.003 113.096 118.835 109.64C115.667 106.136 111.827 103.448 107.315 101.576C102.803 99.704 97.7634 98.768 92.1954 98.768C86.6754 98.768 81.6594 99.704 77.1474 101.576C72.6354 103.448 68.7714 106.136 65.5554 109.64C62.3874 113.096 59.9394 117.344 58.2114 122.384C56.4834 127.424 55.6194 133.112 55.6194 139.448ZM147.851 212.312H136.331C134.603 212.312 133.067 212.072 131.723 211.592C130.379 211.112 129.155 210.272 128.051 209.072L109.979 189.344C104.507 191.168 98.5794 192.08 92.1954 192.08C84.6114 192.08 77.6994 190.808 71.4594 188.264C65.2194 185.672 59.8674 182.048 55.4034 177.392C50.9394 172.736 47.4834 167.192 45.0354 160.76C42.5874 154.28 41.3634 147.176 41.3634 139.448C41.3634 131.72 42.5874 124.64 45.0354 118.208C47.4834 111.728 50.9394 106.16 55.4034 101.504C59.8674 96.8 65.2194 93.152 71.4594 90.56C77.6994 87.968 84.6114 86.672 92.1954 86.672C99.7794 86.672 106.691 87.968 112.931 90.56C119.219 93.152 124.595 96.8 129.059 101.504C133.523 106.16 136.979 111.728 139.427 118.208C141.875 124.64 143.099 131.72 143.099 139.448C143.099 144.296 142.595 148.904 141.587 153.272C140.627 157.64 139.211 161.72 137.339 165.512C135.467 169.256 133.187 172.664 130.499 175.736C127.811 178.808 124.787 181.472 121.427 183.728L147.851 212.312ZM235.444 169.688C236.212 169.688 236.884 170 237.46 170.624L243.004 176.6C238.78 181.496 233.644 185.312 227.596 188.048C221.596 190.784 214.324 192.152 205.78 192.152C198.388 192.152 191.668 190.88 185.62 188.336C179.572 185.744 174.412 182.144 170.14 177.536C165.868 172.88 162.556 167.312 160.204 160.832C157.852 154.352 156.676 147.224 156.676 139.448C156.676 131.672 157.9 124.544 160.348 118.064C162.796 111.584 166.228 106.016 170.644 101.36C175.108 96.704 180.436 93.104 186.628 90.56C192.82 87.968 199.66 86.672 207.148 86.672C214.492 86.672 220.972 87.848 226.588 90.2C232.204 92.552 237.148 95.744 241.42 99.776L236.812 106.184C236.524 106.664 236.14 107.072 235.66 107.408C235.228 107.696 234.628 107.84 233.86 107.84C232.996 107.84 231.94 107.384 230.692 106.472C229.444 105.512 227.812 104.456 225.796 103.304C223.78 102.152 221.26 101.12 218.236 100.208C215.212 99.248 211.492 98.768 207.076 98.768C201.748 98.768 196.876 99.704 192.46 101.576C188.044 103.4 184.228 106.064 181.012 109.568C177.844 113.072 175.372 117.344 173.596 122.384C171.82 127.424 170.932 133.112 170.932 139.448C170.932 145.88 171.844 151.616 173.668 156.656C175.54 161.696 178.06 165.968 181.228 169.472C184.444 172.928 188.212 175.568 192.532 177.392C196.9 179.216 201.604 180.128 206.644 180.128C209.716 180.128 212.476 179.96 214.924 179.624C217.42 179.24 219.7 178.664 221.764 177.896C223.876 177.128 225.82 176.168 227.596 175.016C229.42 173.816 231.22 172.4 232.996 170.768C233.812 170.048 234.628 169.688 235.444 169.688ZM313.991 152.696L297.791 110.72C297.311 109.472 296.807 108.032 296.279 106.4C295.751 104.72 295.247 102.944 294.767 101.072C293.759 104.96 292.727 108.2 291.671 110.792L275.471 152.696H313.991ZM343.079 191H332.279C331.031 191 330.023 190.688 329.255 190.064C328.487 189.44 327.911 188.648 327.527 187.688L317.879 162.776H271.583L261.935 187.688C261.647 188.552 261.095 189.32 260.279 189.992C259.463 190.664 258.455 191 257.255 191H246.455L287.711 87.824H301.823L343.079 191Z" fill="white"/>
</svg>
